<?xml version="1.0" standalone="no"?>
<!DOCTYPE svg PUBLIC "-//W3C//DTD SVG 20010904//EN"
 "http://www.w3.org/TR/2001/REC-SVG-20010904/DTD/svg10.dtd">
<svg version="1.0" xmlns="http://www.w3.org/2000/svg"
 width="181.000000pt" height="115.000000pt" viewBox="0 0 181.000000 115.000000"
 preserveAspectRatio="xMidYMid meet">

<g transform="translate(0.000000,115.000000) scale(0.100000,-0.100000)"
fill="#000000" stroke="none">
<path d="M753 1135 c-516 -59 -716 -253 -408 -395 112 -52 311 -100 411 -100
l34 0 67 211 c50 154 69 204 74 187 3 -13 9 -96 13 -183 4 -88 10 -175 13
-194 l6 -34 151 6 c401 16 696 126 696 259 0 67 -135 154 -305 197 -207 53
-523 72 -752 46z"/>
<path d="M515 594 c-305 -47 -515 -167 -515 -295 0 -43 50 -109 112 -149 101
-66 287 -125 442 -142 l30 -3 73 225 c40 124 84 260 97 303 l24 77 -86 -1
c-48 -1 -127 -7 -177 -15z"/>
<path d="M960 568 c0 -64 30 -561 34 -565 2 -2 50 4 107 13 340 54 536 180
504 325 -23 106 -238 212 -515 254 -136 21 -130 22 -130 -27z"/>
</g>
</svg>
