<?xml version="1.0" standalone="no"?>
<!DOCTYPE svg PUBLIC "-//W3C//DTD SVG 20010904//EN"
 "http://www.w3.org/TR/2001/REC-SVG-20010904/DTD/svg10.dtd">
<svg version="1.0" xmlns="http://www.w3.org/2000/svg"
 width="383.000000pt" height="115.000000pt" viewBox="0 0 383.000000 115.000000"
 preserveAspectRatio="xMidYMid meet">

<g transform="translate(0.000000,115.000000) scale(0.100000,-0.100000)"
fill="#000000" stroke="none">
<path d="M495 754 c-72 -18 -117 -38 -127 -57 -9 -18 -7 -24 16 -41 15 -11 45
-27 68 -36 23 -8 41 -19 41 -25 -1 -5 -21 -16 -45 -23 -93 -29 -133 -49 -148
-75 -13 -23 -13 -28 4 -46 10 -11 44 -30 74 -41 78 -29 94 -20 121 68 11 39
21 81 21 95 0 13 9 36 20 49 11 14 24 37 30 52 5 14 16 26 24 26 19 0 29 -60
30 -187 1 -62 5 -106 13 -114 24 -24 150 20 177 64 15 24 -1 48 -52 72 -53 26
-80 52 -67 64 6 5 38 13 72 19 80 14 115 36 111 71 -5 43 -77 64 -233 67 -71
2 -139 1 -150 -2z"/>
<path d="M1066 654 c-12 -12 -16 -37 -16 -104 0 -49 3 -95 6 -104 5 -13 25
-16 119 -16 136 0 151 8 140 74 -3 23 -6 50 -5 61 7 72 5 79 -22 94 -35 20
-43 11 -27 -34 12 -34 12 -38 -6 -51 -27 -20 -119 -18 -140 2 -15 16 -13 46 6
70 21 26 -30 33 -55 8z m194 -119 c18 -11 11 -64 -9 -75 -21 -11 -83 -13 -118
-4 -41 11 -41 67 0 85 22 9 109 5 127 -6z"/>
<path d="M1530 657 c-18 -14 -120 -189 -120 -206 0 -18 25 -13 45 9 37 41 159
35 200 -10 20 -22 45 -27 45 -8 0 21 -112 208 -131 218 -22 12 -20 12 -39 -3z
m49 -74 c19 -23 20 -29 7 -47 -18 -28 -43 -32 -67 -10 -24 22 -24 32 3 61 27
29 32 29 57 -4z"/>
<path d="M2199 649 c-19 -19 -21 -30 -17 -108 2 -47 7 -92 12 -99 5 -8 46 -12
141 -12 160 0 155 -4 155 124 0 113 -5 116 -157 116 -102 0 -115 -2 -134 -21z
m230 -25 c14 -17 21 -41 21 -68 0 -90 -11 -99 -123 -98 -90 0 -102 12 -102 93
0 82 20 99 115 99 62 0 71 -2 89 -26z"/>
<path d="M2600 651 c-15 -30 -13 -196 3 -210 17 -14 37 4 37 34 0 27 18 45 45
45 11 0 43 -20 72 -45 47 -42 83 -57 83 -36 0 5 -7 14 -15 21 -23 19 -18 54
11 79 21 18 25 29 22 64 -2 32 -9 44 -29 56 -14 8 -34 11 -43 8 -16 -6 -15 -9
3 -29 25 -26 27 -51 5 -72 -19 -19 -124 -22 -142 -4 -18 18 -14 56 7 77 17 17
17 20 4 25 -28 11 -52 6 -63 -13z"/>
<path d="M2970 661 c0 -5 13 -11 30 -14 42 -9 60 -50 60 -136 0 -69 13 -98 31
-70 5 8 9 48 9 89 0 89 16 120 61 120 16 0 29 5 29 10 0 6 -43 10 -110 10 -60
0 -110 -4 -110 -9z"/>
<path d="M3305 658 c-7 -21 -7 -38 -6 -135 l1 -93 115 0 c63 0 115 4 115 9 0
16 -33 22 -85 16 -56 -6 -98 9 -103 38 -5 27 17 47 54 47 18 0 36 5 39 10 3 6
3 10 -2 11 -42 4 -70 12 -82 24 -13 13 -12 18 6 44 12 16 19 31 16 35 -11 11
-64 6 -68 -6z"/>
<path d="M1795 638 c-3 -13 -5 -61 -3 -108 3 -71 6 -85 21 -88 15 -3 17 5 17
56 0 41 5 63 15 72 16 13 32 3 159 -104 67 -56 76 -48 76 73 0 62 -4 102 -11
107 -16 10 -29 -15 -29 -58 0 -46 -8 -68 -25 -68 -8 0 -52 32 -99 70 -47 39
-93 70 -101 70 -8 0 -17 -10 -20 -22z"/>
</g>
</svg>
