<?xml version="1.0" standalone="no"?>
<!DOCTYPE svg PUBLIC "-//W3C//DTD SVG 20010904//EN"
 "http://www.w3.org/TR/2001/REC-SVG-20010904/DTD/svg10.dtd">
<svg version="1.0" xmlns="http://www.w3.org/2000/svg"
 width="300.000000pt" height="90.000000pt" viewBox="0 0 300.000000 90.000000"
 preserveAspectRatio="xMidYMid meet">

<g transform="translate(0.000000,90.000000) scale(0.100000,-0.100000)"
fill="#000000" stroke="none">
<path d="M415 590 c-65 -8 -116 -25 -126 -42 -13 -20 2 -36 53 -58 28 -12 46
-25 42 -30 -5 -4 -35 -15 -66 -24 -103 -29 -118 -76 -35 -111 70 -29 83 -23
107 50 12 35 19 69 16 74 -3 5 3 19 13 32 10 13 21 34 25 47 8 24 21 29 32 11
4 -7 10 -60 13 -118 6 -102 7 -106 30 -109 33 -5 109 26 116 47 9 29 -2 45
-48 67 -59 28 -54 45 16 59 67 13 97 36 81 62 -22 36 -157 57 -269 43z"/>
<path d="M826 498 c-10 -40 -6 -144 6 -156 7 -7 43 -12 90 -12 65 0 81 3 99
21 14 14 18 26 12 42 -4 12 -6 42 -5 66 3 46 -7 61 -41 61 -16 0 -16 -2 -1
-25 24 -36 5 -55 -56 -55 -61 0 -80 19 -56 55 16 25 16 25 -13 25 -21 0 -30
-6 -35 -22z m159 -84 c31 -32 15 -49 -49 -52 -55 -3 -75 5 -76 30 -1 35 95 52
125 22z"/>
<path d="M1173 478 c-43 -68 -75 -129 -69 -135 3 -3 17 4 32 16 36 28 111 29
147 1 28 -22 47 -26 47 -9 0 13 -81 152 -95 161 -21 15 -35 7 -62 -34z m71
-56 c-15 -23 -58 -22 -62 1 -2 10 4 27 14 38 18 20 18 20 38 -1 16 -16 18 -24
10 -38z"/>
<path d="M1405 497 c-10 -39 -1 -150 13 -155 8 -2 12 9 12 36 0 50 8 72 26 72
7 0 42 -25 78 -55 90 -77 98 -75 94 27 -2 54 -7 83 -15 86 -9 2 -13 -10 -13
-42 0 -32 -5 -48 -15 -52 -16 -7 -24 -2 -105 64 -28 23 -56 42 -61 42 -5 0
-11 -10 -14 -23z"/>
<path d="M1722 508 c-7 -7 -12 -41 -12 -85 0 -89 6 -93 120 -93 114 0 120 4
120 93 0 44 -5 78 -12 85 -16 16 -200 16 -216 0z m178 -18 c22 -22 27 -78 10
-111 -9 -16 -22 -19 -78 -19 -40 0 -73 5 -80 12 -7 7 -12 31 -12 55 0 60 25
83 90 83 37 0 55 -5 70 -20z"/>
<path d="M2034 507 c-9 -25 1 -160 12 -164 6 -2 15 11 20 29 13 45 33 45 88 3
51 -39 93 -50 63 -17 -23 25 -21 49 3 62 14 7 20 21 20 43 0 41 -15 57 -54 57
-30 0 -30 0 -8 -16 24 -17 29 -43 10 -62 -13 -13 -75 -16 -102 -6 -28 11 -18
64 14 77 8 3 -2 6 -23 6 -23 1 -40 -4 -43 -12z"/>
<path d="M2336 513 c38 -7 53 -34 56 -103 2 -50 7 -65 18 -65 12 0 16 17 20
75 l5 75 35 12 c32 11 26 12 -60 11 -52 0 -85 -3 -74 -5z"/>
<path d="M2587 513 c-4 -3 -7 -43 -7 -89 0 -95 -1 -94 98 -94 119 0 116 26 -3
32 -43 3 -50 6 -53 26 -3 21 8 31 42 36 30 4 26 14 -9 20 -39 8 -46 28 -18 58
15 17 15 18 -14 18 -16 0 -33 -3 -36 -7z"/>
<path d="M2718 513 c7 -3 16 -2 19 1 4 3 -2 6 -13 5 -11 0 -14 -3 -6 -6z"/>
</g>
</svg>
