<?xml version="1.0" standalone="no"?>
<!DOCTYPE svg PUBLIC "-//W3C//DTD SVG 20010904//EN"
 "http://www.w3.org/TR/2001/REC-SVG-20010904/DTD/svg10.dtd">
<svg version="1.0" xmlns="http://www.w3.org/2000/svg"
 width="200.000000pt" height="60.000000pt" viewBox="0 0 100.000000 30.000000"
 preserveAspectRatio="xMidYMid meet">

<g transform="translate(0.000000,30.000000) scale(0.100000,-0.100000)"
fill="#000000" stroke="none">
<path d="M105 186 c-18 -13 -18 -14 5 -21 23 -7 22 -8 -11 -22 -33 -14 -33
-15 -14 -29 27 -20 37 -14 54 37 l16 44 3 -47 c3 -50 10 -55 44 -37 l21 11
-24 19 c-24 18 -24 19 -2 19 27 0 40 19 22 31 -22 14 -93 11 -114 -5z"/>
<path d="M277 174 c-4 -4 -7 -20 -7 -36 0 -28 2 -29 37 -26 34 3 37 6 38 33 0
26 -4 30 -30 33 -17 2 -34 0 -38 -4z m53 -14 c0 -5 -9 -10 -20 -10 -11 0 -20
5 -20 10 0 6 9 10 20 10 11 0 20 -4 20 -10z m0 -30 c0 -5 -9 -10 -20 -10 -11
0 -20 5 -20 10 0 6 9 10 20 10 11 0 20 -4 20 -10z"/>
<path d="M382 146 c-12 -20 -17 -36 -12 -36 9 0 25 20 25 33 0 4 5 7 10 7 6 0
10 -3 10 -7 0 -14 16 -33 26 -33 10 0 2 20 -24 54 -13 17 -15 17 -35 -18z"/>
<path d="M577 174 c-4 -4 -7 -20 -7 -36 0 -26 3 -28 41 -28 39 0 40 1 37 33
-3 28 -7 32 -33 35 -17 2 -34 0 -38 -4z m61 -31 c3 -20 -1 -23 -27 -23 -23 0
-31 5 -31 18 0 25 10 33 35 30 12 -2 21 -12 23 -25z"/>
<path d="M680 143 c0 -28 3 -34 10 -23 8 13 13 13 31 2 14 -9 19 -10 14 -2 -4
7 -2 16 5 20 22 14 3 40 -30 40 -28 0 -30 -2 -30 -37z m50 11 c0 -9 -7 -14
-17 -12 -25 5 -28 28 -4 28 12 0 21 -6 21 -16z"/>
<path d="M782 168 c9 -7 19 -24 21 -38 4 -21 4 -20 6 7 1 21 7 33 19 36 9 3
-1 5 -22 6 -34 1 -37 -1 -24 -11z"/>
<path d="M860 145 c0 -34 1 -35 38 -33 36 1 36 1 5 5 -34 4 -46 22 -15 24 14
0 14 2 -3 9 -21 8 -21 8 25 23 8 3 0 6 -17 6 -31 1 -33 -1 -33 -34z"/>
<path d="M471 138 c1 -29 2 -30 8 -10 l6 24 28 -22 27 -21 -1 33 c-1 18 -3 25
-6 16 -6 -22 -17 -23 -33 -3 -20 24 -30 18 -29 -17z"/>
</g>
</svg>
