<svg width="13" height="12" viewBox="0 0 13 12" fill="none" version="1.0" xmlns="http://www.w3.org/2000/svg"

<path d="M2195 4030 c-11 -5 -173 -162 -360 -349 l-340 -341 -146 145 c-181
180 -178 180 -286 72 -112 -113 -119 -97 145 -359 183 -182 223 -217 254 -223
82 -15 75 -21 521 423 405 404 417 418 417 455 0 33 -8 47 -57 99 -53 55 -100
89 -120 87 -4 0 -17 -4 -28 -9z"/>
<path d="M2539 3551 l-29 -29 0 -142 0 -142 28 -28 c19 -19 43 -30 73 -35 24
-3 342 -5 706 -3 l662 3 30 29 31 30 0 144 0 144 -29 29 -29 29 -707 0 -707 0
-29 -29z"/>
<path d="M1418 2631 l-33 -29 -3 -130 c-5 -206 14 -226 225 -220 l125 3 29 33
29 32 0 141 0 141 -29 29 -29 29 -141 0 -141 0 -32 -29z"/>
<path d="M2253 2648 c-40 -19 -53 -66 -53 -193 0 -84 4 -124 15 -145 32 -63
-7 -60 903 -60 565 0 839 3 860 11 55 19 62 42 62 199 l0 142 -29 29 -29 29
-854 -1 c-580 0 -860 -4 -875 -11z"/>
<path d="M1418 1711 l-33 -29 -3 -134 c-2 -119 -1 -136 18 -166 11 -18 32 -37
46 -42 14 -6 82 -10 151 -10 l125 0 34 34 34 34 0 131 c0 202 -9 211 -210 211
-129 0 -130 0 -162 -29z"/>
<path d="M2238 1711 l-33 -29 0 -146 0 -146 28 -27 27 -28 848 -3 c623 -2 854
1 875 9 51 22 57 41 57 196 0 136 -1 143 -24 170 l-24 28 -861 3 -860 2 -33
-29z"/>
</g>
</svg>
